<mxfile host="app.diagrams.net" modified="2023-10-25T03:16:46.350Z" agent="Mozilla/5.0 (Windows NT 10.0; Win64; x64) AppleWebKit/537.36 (KHTML, like Gecko) Chrome/118.0.0.0 Safari/537.36 Edg/118.0.2088.61" version="22.0.7" etag="qIG3wk3NUd4R8OdsZAUp" type="github">
  <diagram name="第 1 页" id="D9fB9eXv8vIYv8KfAKFK">
    <mxGraphModel>
      <root>
        <mxCell id="0" />
        <mxCell id="1" parent="0" />
      </root>
    </mxGraphModel>
  </diagram>
</mxfile>
